<?xml version="1.0" encoding="UTF-8"?>
<svg id="Layer_1" data-name="Layer 1" xmlns="http://www.w3.org/2000/svg" xmlns:xlink="http://www.w3.org/1999/xlink" viewBox="0 0 250 250">
  <defs>
    <style>
      .cls-1 {
        fill: url(#radial-gradient);
      }

      .cls-1, .cls-2, .cls-3 {
        stroke-width: 0px;
      }

      .cls-4 {
        fill: none;
        stroke: #5a8fb9;
        stroke-linecap: round;
        stroke-miterlimit: 10;
        stroke-width: 2.58px;
      }

      .cls-2 {
        fill: #302767;
      }

      .cls-3 {
        fill: #010101;
      }
    </style>
    <radialGradient id="radial-gradient" cx="125.42" cy="127.69" fx="125.42" fy="127.69" r="107.91" gradientUnits="userSpaceOnUse">
      <stop offset=".2" stop-color="#34326d" stop-opacity=".3"/>
      <stop offset=".54" stop-color="#5a8fb9" stop-opacity=".3"/>
      <stop offset=".82" stop-color="#b1d7d2" stop-opacity=".3"/>
      <stop offset="1" stop-color="#fff" stop-opacity="0"/>
    </radialGradient>
  </defs>
  <circle class="cls-1" cx="125.42" cy="127.69" r="107.91"/>
  <g>
    <path class="cls-3" d="m186.62,165.6c-2.54,1.41-5.08,2.8-7.61,4.22-.99.56-1.94,1.18-2.94,1.72-3.21,1.75-6.42,3.49-9.65,5.2-2.12,1.12-4.19,2.37-6.42,3.22-4.1,1.55-8.27,2.95-12.47,4.21-2.55.77-5.22,1.17-7.84,1.71-3.94.8-7.86,1.68-11.83,2.34-3.52.58-7.08.95-10.62,1.32-2.55.27-5.11.39-7.66.56-.26.02-.53-.09-.8-.14.09-.25.13-.55.3-.74.77-.89,1.54-1.78,2.36-2.62,2.12-2.17,3.83-4.73,6.3-6.56,1.37-1.02,2.68-2.13,4.38-2.63,1.19-.35,2.36-.75,3.52-1.19,2.7-1.02,5.52-1.69,8.09-3.06.24-.13.48-.26.72-.4-.1-.07-.16-.07-.22-.06-3.13.65-6.26,1.31-9.39,1.97-.9.19-1.89.24-2.67.67-3.51,1.91-6.72,4.29-9.77,6.87-2.42,2.05-4.66,4.28-6.56,6.82-.09.11-.25.2-.39.23-.36.09-.72.13-1.08.2-1.12.24-2.24.5-3.37.71-.51.09-.72-.2-.62-.7.1-.52.21-1.04.34-1.66-1.71.31-3.36.62-5.02.91-.67.12-1.39.4-2,.25-1.92-.47-3.83-1.05-5.7-1.71-1.32-.46-2.56-1.13-3.85-1.69-.68-.3-1.44-.47-2.03-.88-2.06-1.41-4.08-2.89-6.1-4.37-.95-.7-1.95-1.36-2.74-2.21-1.79-1.94-3.48-3.98-5.19-6-.64-.76-1.28-1.52-1.83-2.34-1.39-2.07-2.71-4.2-4.1-6.27-.98-1.46-1.04-1.45.29-2.68,2.55-2.35,5.08-4.73,7.71-7,1.45-1.25,3.07-2.3,4.63-3.42.22-.16.53-.17.8-.25.06.1.13.19.19.29-1.1,1.35-2.2,2.69-3.3,4.04,3.76-3,7.31-6.2,10.51-9.95-1.37-.16-2.69-.39-4.01-.45-1.04-.05-1.13-.03-1.21-1.07-.04-.53-.09-1.07-.13-1.6-.05-.63-.11-1.26-.16-1.82-1.56-.07-3.07-.14-4.57-.19-.5-.02-.78-.2-.71-.75.14-1.18.28-2.36.37-3.55.08-1.15.08-2.31.12-3.47.02-.64.17-.72.78-.7,1.26.04,2.53.01,3.79.01.08-1.68.15-3.27.22-4.92-.25-.03-.52-.13-.76-.08-.46.09-.62-.16-.54-.49.14-.59.34-1.18.6-1.73.08-.16.46-.17.68-.28.15-.07.38-.17.41-.3.23-.96.44-1.92.63-2.89.13-.65.21-1.32.33-2.08-1.04.3-1.96.52-2.85.84-.44.16-.77.09-1.17-.11-.59-.29-.77-.71-.81-1.37-.1-1.6-.07-3.15.56-4.68.51-1.23.9-2.52,1.23-3.82,2.09-8.1,4.15-16.21,6.19-24.32.56-2.22,1.08-4.45,1.47-6.7.37-2.09.46-4.22,1.15-6.25.45-1.34.73-2.76,1.33-4.04.6-1.3,1.49-2.47,2.27-3.69.07-.12.19-.23.31-.29.77-.39,1.51-.88,2.33-1.12,1.12-.34,2.02-.97,2.94-1.65,3.92-2.87,7.86-5.7,11.82-8.52.45-.32,1-.57,1.53-.72,1.37-.38,2.76-.69,4.14-1.04,6.51-1.65,13.09-2.87,19.82-3.11,1.15-.04,2.37-.18,3.46.1,3.43.88,6.85,1.83,10.2,2.97,5.33,1.8,10.1,4.65,14.16,8.55,2.08,2,3.92,4.26,5.91,6.35,1.1,1.16,1.87,2.49,2.44,3.96,1.72,4.42,3.2,8.92,4.32,13.53.64,2.64,1.23,5.3,1.84,7.95.26,1.16.42,2.36.77,3.5,1.02,3.31,2.13,6.6,3.15,9.91.16.51.28.9.82,1.08.34.11.46.39.32.75-.09.23-.13.48-.23.71-.15.35-.09.57.2.86,1.04,1.02,2.04,2.09,3.07,3.13.09.09.27.1.54.18.02.4,0,.91.09,1.41.05.31.16.67.37.9.77.86,1.68,1.61,2.39,2.51,2.47,3.1,3.63,6.78,4.57,10.56.07.28.29.57.52.73.37.26.58.56.59,1.01.11,2.72.2,5.45.37,8.17.07,1.05-.32,1.83-1,2.55-.12.13-.24.33-.25.51-.09,1.99-.3,3.94-1.28,5.73-.18.32-.3.68-.46,1.01-.95,1.85-1.79,3.77-2.9,5.52-.86,1.34-2.06,2.47-3.11,3.69-.2.23-.4.45-.61.69.56.39,1.22.56,1.63,1.21-.28.02-.44.05-.59.04-.85-.07-1.61.19-2.37.55-2.57,1.23-4.71,3.04-6.74,5-1.02.99-2.02,2.02-3,3.05-.95,1-1.91,2.01-2.79,3.08-.9,1.08-1.71,2.24-2.56,3.36.04.04.07.07.11.11.84-.58,1.69-1.16,2.53-1.74,5.4-3.73,11.12-6.73,17.74-7.62,1.71-.23,3.44-.38,5.16-.53.34-.03.69.11,1.16.19-1.76.97-3.38,1.87-4.99,2.77Zm-111.82-50.68c-.05.93,0,1.86.02,2.79.02.49.47.74.94.62,2.76-.69,5.5-1.41,8.28-2.01,4.41-.94,8.88-.65,13.33-.4,6.72.37,13.3,1.62,19.76,3.4,4.11,1.13,8.22,1.51,12.47,1.16,3.74-.31,7.28-1.26,10.63-2.86,2.17-1.04,4.16-2.43,5.69-4.37.85-1.09,1.74-2.14,2.7-3.3-1.4-.33-2.71-.56-3.97-.97-1.03-.33-1.65-.02-2.39.71-1.09,1.06-2.37,1.92-3.59,2.84-.21.16-.49.22-.81.21,1.54-1.43,3.34-2.54,4.67-4.19-.71-.33-1.25-.37-1.9.23-1.1,1-2.26,1.99-3.55,2.68-1.72.91-3.57,1.59-5.41,2.23-.92.32-1.93.45-2.91.47-1.02.02-2.05-.14-3.06-.34-1.62-.31-3.21-.71-4.82-1.07-2.8-.62-5.58-1.33-8.4-1.81-2.46-.42-4.95-.64-7.44-.8-3.42-.22-6.85-.35-10.28-.42-1.85-.04-3.71.1-5.57.2-2.66.14-5.17.9-7.68,1.76-1.92.65-3.78,1.38-5.58,2.3-.35.18-.68.26-.78-.28.04,0,.08,0,.11-.02.59-.37,1.39-.63,1.71-1.16.32-.53.14-1.36.22-2.05.32-2.59,1.15-5.05,1.81-7.56,1-3.74,1.87-7.51,2.83-11.26,1-3.93,2.06-7.84,3.06-11.77.43-1.69.77-3.41,1.2-5.1.2-.77.64-1.5.76-2.27.22-1.38,1.23-1.93,2.31-2.31,2.07-.74,4.17-1.4,6.29-2,1.1-.31,2.27-.4,3.39-.65,4.38-.94,8.79-.38,13.2-.26,1.57.04,3.14.11,4.7.26,4.37.42,8.7,1.07,12.89,2.51,1.32.46,2.7.71,4.04,1.11.52.16,1.03.41,1.49.71,1.64,1.08,3.31,2.11,4.85,3.32,1.78,1.4,3.09,3.25,4.25,5.19.88,1.46,1.73,2.94,2.63,4.39.11.18.44.23.67.34.05-.05.09-.11.14-.16-.36-.78-.71-1.56-1.09-2.33-.52-1.05-1.03-2.12-1.61-3.14-.34-.58-.81-1.09-1.23-1.62-1.93-2.44-4.32-4.37-6.88-6.12-.25-.17-.48-.36-.71-.54.02-.07.05-.13.07-.2.27.06.58.06.8.2,1.11.74,2.23,1.49,3.29,2.3,1.89,1.44,3.56,3.16,4.78,5.16,1.2,1.97,2.38,4,3.01,6.27.03.12.19.29.3.3,1.41.16,2.82.3,4.45.46-.46-1.36-.8-2.57-1.28-3.71-.75-1.78-1.45-3.61-2.44-5.25-1.76-2.93-3.98-5.52-6.68-7.67-2.2-1.75-4.6-3.18-7.17-4.22-2.04-.82-4.25-1.24-6.41-1.76-1.67-.41-3.37-.75-5.06-1.06-.91-.17-1.84-.23-2.76-.31-1.88-.18-3.76-.43-5.65-.48-3-.08-6-.14-8.99,0-3.42.16-6.83.5-10.23.83-2.47.24-4.88.79-7.08,2.01-.19.1-.39.24-.51.42-.45.67-.82,1.39-1.3,2.03-1.06,1.44-1.25,3.21-1.87,4.81-.81,2.09-1.01,4.28-1.23,6.47-.24,2.46-.93,4.81-1.53,7.19-2.04,8.04-4.1,16.07-6.17,24.09-.4,1.55-.91,3.08-1.37,4.61-.12.41-.33.81-.35,1.22Zm64.23-9.04c-1.05-.45-1.7-1.26-1.79-2.39-.1-1.17-.06-2.35-.08-3.52-.02-.68-.02-1.36-.07-2.04-.21-2.9.33-5.72,1.07-8.49.21-.8.78-1.52,1.28-2.21.45-.61.99-1.17,1.57-1.65,1.06-.88,2.33-1.06,3.67-.87.18.02.36.05.67.09-.44-.77-.78-1.49-1.24-2.13-1.44-1.99-2.93-3.95-4.42-5.9-.23-.31-.53-.59-.85-.81-1.67-1.17-3.31-2.41-5.07-3.45-.9-.53-1.99-.76-3.02-1.04-2.86-.77-5.71-1.64-8.62-2.2-3.87-.74-7.81-1.06-11.76-1.03-2.02.02-4.05-.19-6.07-.19-1.98,0-3.98-.03-5.93.26-3.11.46-6.11,1.45-9.06,2.56-.46.17-.92.4-1.31.7-.25.19-.44.54-.53.85-.65,2.46-1.26,4.94-1.91,7.41-.68,2.61-1.42,5.21-2.08,7.82-1.34,5.29-2.65,10.59-3.96,15.89-.57,2.32-1.14,4.64-1.67,6.96-.11.49-.08,1.02-.12,1.6.73-.3,1.38-.54,2.01-.83,2.45-1.15,5.08-1.76,7.72-2.11,2.39-.32,4.82-.42,7.23-.37,4.28.09,8.56.28,12.82.6,3.56.26,7.07.95,10.55,1.76,3.43.79,6.87,1.51,10.32,2.23.42.09.93.08,1.33-.07,1.98-.7,3.96-1.41,5.9-2.21.73-.3,1.38-.82,2-1.33,1.18-.97,2.3-2,3.52-3.07-.81-.31-1.47-.54-2.11-.81Zm26.21-7.63c.01-1.29.26-2.54.77-3.73.17-.39.38-.78.65-1.12.94-1.2,2.32-1.29,3.37-.18,1.65,1.77,2.9,3.8,3.8,6.05.53,1.33.83,2.71.77,4.2.27.02.49.04.82.06-.35-1.48-.58-2.93-1.03-4.31-.8-2.51-1.71-4.99-2.62-7.47-.14-.38-.47-.72-.78-1-1.69-1.53-3.39-3.03-5.09-4.54-.07-.07-.12-.16-.14-.3,2.26.97,4.05,2.64,6.16,4-.53-2.18-1.05-4.35-1.6-6.53-1.2-4.76-2.69-9.44-4.35-14.06-.31-.85-.78-1.55-1.43-2.2-2.03-2.01-3.97-4.1-6-6.11-1.57-1.56-3.22-3.04-4.84-4.54-.18-.17-.39-.3-.61-.42-5.89-3.1-12.07-5.47-18.5-7.13-1.58-.41-3.33-.32-4.99-.23-5.83.3-11.58,1.22-17.23,2.73-1,.27-2.01.47-3.01.7-1.56.35-3.04.91-4.35,1.85-3.33,2.37-6.72,4.65-9.78,7.39.87.17,1.43-.09,2.36-.85,1.5-1.23,3.05-2.4,4.59-3.58,1.05-.8,2.11-1.6,3.19-2.35.5-.35,1.04-.67,1.61-.88,3.5-1.26,7.14-1.9,10.78-2.56,1.78-.32,3.57-.59,5.37-.83.65-.09,1.33-.01,2.01.13-2.79.63-5.59,1.26-8.38,1.89,0,.04.02.09.03.13.22.03.43.06.65.08.02.06.04.12.06.19-.76.47-1.73.43-2.52.82.67.11,1.32.22,1.98.32,0,.08.02.15.03.23-.7.22-1.39.44-2.22.71.54.04.94.07,1.34.11.01.08.02.17.03.25-.52.15-1.04.29-1.72.49.61.11,1.06.19,1.64.3-.67.68-1.54.35-2.3.82.59.1,1.06.16,1.51.28.18.05.31.24.46.37-.15.1-.3.23-.46.3-.15.06-.33.09-.49.07-.83-.13-1.21.27-1.38,1.05-.12.56-.36,1.08-.55,1.66.13.02.2.05.28.05,2.29.09,4.58.13,6.87.28,1.23.08,2.46.25,3.67.52,3.79.83,7.59,1.66,11.35,2.63,1.19.31,2.28,1.02,3.38,1.63,2.25,1.25,4.58,2.45,6.32,4.42,1.67,1.89,3.36,3.77,4.79,5.84,1.04,1.51,1.71,3.28,2.44,4.98.64,1.51,1.12,3.09,1.7,4.63.06.16.25.33.41.39.69.27,1.38.52,2.08.76.39.14.65.38.62.8-.07.94-.14,1.89-.26,2.82-.05.37-.04.58.34.78,1.59.87,3.16,1.78,4.87,2.76-.34-1.5-.64-2.86-.94-4.22.07-.02.13-.04.19-.07.27.75.57,1.48.79,2.25.19.65.28,1.33.42,1.99.04.17.09.42.21.49,1.01.59.59,1.44.5,2.13.16.36.43.65.39.9-.15.83.25,1.26,1.01,1.59-.11-3.1-.72-6.09-1.27-9.1,1.28,2.91,1.78,5.98,1.93,9.14.08,0,.16,0,.25,0,.02-.22.06-.45.06-.67Zm-39.81,78.94c-.37.13-.73.28-1.11.39-2.83.82-5.01,2.6-7,4.68-1.06,1.11-2.18,2.15-3.26,3.23-1.15,1.15-2.28,2.33-3.41,3.49.03.06.06.12.09.17.43-.05.86-.11,1.29-.14,2.39-.16,4.79-.23,7.17-.49,2.89-.31,5.78-.7,8.65-1.19,3.72-.63,7.41-1.41,11.12-2.11,2.15-.4,4.31-.71,6.44-1.19,1.25-.28,2.43-.84,3.65-1.24,2.66-.88,5.36-1.66,7.99-2.62,1.87-.69,3.69-1.55,5.48-2.44,2.35-1.17,4.66-2.41,6.95-3.68,3.93-2.16,7.83-4.36,11.74-6.53,2.06-1.14,4.13-2.26,6.19-3.38.48-.26.99-.46,1.46-.83-.84.14-1.68.25-2.51.42-1.99.42-3.99.85-5.97,1.34-.92.23-1.82.54-2.68.93-2.99,1.36-5.88,2.89-8.58,4.79-2.45,1.72-4.91,3.43-7.48,4.96-1.66,1-3.51,1.69-5.28,2.51-.08.04-.18.05-.34-.06.14-.08.27-.17.4-.25,1.54-.83,3.08-1.67,4.62-2.48.8-.42,1.31-1.08,1.71-1.88.77-1.53,1.46-3.11,2.4-4.53.75-1.14,1.81-2.09,2.73-3.12.06-.07.16-.09.28-.1-1.24,1.98-3.06,3.58-3.84,6.04.72-.96,1.3-1.81,1.95-2.61.98-1.2,1.99-2.38,3.03-3.52,1.06-1.16,2.17-2.27,3.29-3.37,2.11-2.09,4.38-3.96,7.09-5.24.15-.07.29-.15.43-.23.01,0,.02-.04.05-.12-.88-.42-1.76-.85-2.64-1.27-.74-.35-1.51-.67-2.23-1.07-.32-.17-.51-.12-.76.09-1.14.96-2.29,1.9-3.44,2.84-.18.15-.39.26-.59.39-.05-.06-.1-.12-.15-.17,1.32-1.26,2.65-2.52,3.99-3.8-1.86-2.05-4.14-3.63-6.46-5.2-.58.49-1.13.99-1.73,1.43-.24.18-.6.29-.9.27-.56-.03-.99.08-1.47.41-1.89,1.33-3.88,2.52-5.74,3.89-1.46,1.07-2.78,2.32-4.1,3.6,4.3-2.66,9.01-4.06,13.94-4.81.03.07.06.14.09.21-.24.1-.47.25-.71.29-2.55.43-4.96,1.3-7.38,2.17-2.72.97-5.1,2.61-7.58,4.03-1.97,1.13-3.89,2.34-5.55,3.91-.17.16-.42.24-.64.36-.07-.07-.13-.14-.2-.22.48-.51.97-1.02,1.53-1.62-.69-.07-1.28-.14-1.9-.2-.36,1.7-.93,3.36-.25,5.09.25.63.04.96-.56,1.25-1.56.76-3.06,1.62-4.62,2.38-1.07.52-2.19.92-3.28,1.41-2.91,1.32-5.53,3.13-8.2,4.85-2.81,1.81-5.59,3.67-8.39,5.5-.27.18-.55.33-.83.5-.05-.05-.09-.11-.14-.16.6-.51,1.19-1.04,1.81-1.54.65-.51,1.31-1,1.98-1.49s1.35-.95,2.04-1.41,1.37-.93,2.06-1.39c.69-.46,1.38-.9,2.07-1.36,0-.03-.02-.07-.03-.1-1.26.44-2.52.88-3.78,1.32Zm14.76-24.9c-1.83-.13-3.5.46-5.2.94-3.39.95-6.37,2.68-9.2,4.71-.83.59-1.69,1.15-2.61,1.62,1.49-1.65,3.17-3.09,4.94-4.43-.03-.05-.07-.1-.1-.16-1.15.62-2.29,1.26-3.46,1.84-1.99.99-3.44,2.6-4.91,4.2-2.22,2.42-4.66,4.66-6.71,7.22-2.53,3.16-4.75,6.55-6.57,10.19-.66,1.33-1.54,2.55-2.18,3.89-1,2.08-2.37,3.98-2.92,6.26-.07.29-.12.59-.19.93,1.18-.3,2.28-.58,3.39-.89.14-.04.29-.16.39-.28,2.13-2.51,4.48-4.79,6.91-7.02,2.38-2.18,5.18-3.77,7.65-5.81,1-.83,2.02-1.65,3.12-2.35,1.14-.73,2.35-1.35,3.57-1.95,1.18-.58,2.4-1.07,3.69-1.55-.24.23-.44.53-.73.69-.8.46-1.62.9-2.46,1.28-1.41.64-2.78,1.35-4.09,2.49.46-.06.79-.09,1.11-.14.33-.05.65-.09.98-.17,4.1-.93,8.21-1.82,12.29-2.84,1.26-.31,2.44-.96,3.64-1.49.93-.41,1.81-.92,2.74-1.3.6-.25.71-.59.6-1.18-.43-2.33-.79-4.66-1.25-6.99-.34-1.74-.21-3.45.08-5.17.13-.79.29-1.58.45-2.36.04-.19.13-.36.2-.54.07,0,.15.02.22.03,0,.23.02.46,0,.68-.18,1.8-.37,3.59-.55,5.28,2.1.19,4.02.37,5.94.53.18.01.41-.05.53-.16,2.64-2.32,5.26-4.65,7.89-6.98.08-.07.16-.16.26-.27-1.07.07-1.9.85-2.92.89-.03-.09-.07-.17-.1-.26.64-.34,1.25-.74,1.92-1.02,1.95-.81,4.01-1.07,6.11-1.14.76-.03,1.53-.06,2.29-.13.18-.02.37-.16.52-.28.94-.77,1.85-1.58,2.82-2.33.52-.4,1.12-.69,1.75-1.08-.83-.36-1.62-.7-2.38-1.04-.15.45-.16.98-.41,1.16-.83.58-1.54,1.48-2.75,1.31-.32-.05-.66,0-.99.01-.71.02-1.34.16-1.61.95-.13.39-.45.44-.85.41-1.71-.1-3.42-.22-5.13-.2-1.8.02-3.6.13-5.38.34-3.6.43-7.22.77-10.64,2.11-1.1.43-2.24.78-3.36,1.17.02.05.03.1.05.15,2.61-.52,3.36-.5,3.6.16Zm27.71-11.86c-4.58-.5-9.12-1-13.66-1.5,0-.07,0-.14,0-.21,1.08-.06,2.17-.2,3.25-.15,2.1.09,4.2.3,6.3.45,1.38.1,2.76.21,4.25.32.13-1.26.27-2.54.41-3.89-.86-.09-1.73-.17-2.6-.27-3.84-.4-7.68-.84-11.52-1.19-1.6-.14-3.22-.08-4.83-.13-3.99-.12-7.97-.21-11.96-.4-2.7-.13-5.39-.42-8.09-.64-7.06-.56-14.13-.48-21.2-.55-5.97-.06-11.95-.31-17.92-.4-4.09-.07-8.19-.02-12.28,0-1.32,0-2.64.07-3.96.09-.45,0-.66.14-.64.65.04,1.2.01,2.39.01,3.64,1.6.17,3.37.36,5.15.55,0,.1,0,.21.01.31-.25.06-.51.18-.76.17-1.55-.05-3.09-.13-4.71-.21-.08.49-.16.98-.25,1.59,1.18.04,2.31.09,3.44.11,1.07.02,2.14-.02,3.21.02,1.61.06,3.22.12,4.82.25,2.45.21,4.89.56,7.34.69,3.3.18,6.6.25,9.91.29,1.96.03,3.93-.14,5.89-.1,4.44.09,8.88.27,13.33.4,3.57.11,7.15.18,10.73.32,2.97.11,5.94.29,8.92.44.14,0,.29.03.43.03,5.33.12,10.66.19,15.99.38,3.51.12,7.01.41,10.51.62.1,0,.2,0,.33,0,.06-.56.12-1.08.19-1.67Zm-105.79,21.71c2.05,3.02,3.97,6.06,6.11,8.95,1.65,2.22,3.5,4.29,5.38,6.32.87.95,2,1.67,3.04,2.44,1.95,1.46,3.89,2.95,5.92,4.29,1,.66,2.19,1.03,3.29,1.54.34.15.66.32,1.09.53-.06-.23-.08-.37-.13-.51-.17-.44-.31-.9-.52-1.32-.85-1.71-1.23-3.51-1.22-5.42,0-1.61-.12-3.22-.28-4.82-.09-.89-.39-1.77-.59-2.65-.12-.52-.21-1.05-.33-1.66-1.8,1.65-3.29,3.64-5.29,5.06,2.7-3.83,6.05-7.05,9.64-10.28-.84-.15-1.51-.28-2.18-.4-.49-.09-.98-.16-1.46-.26-.6-.12-1.05-.38-1.24-1.04-.44-1.57-1.03-3.1-1.35-4.69-.25-1.2-.18-2.46-.24-3.7-.02-.43,0-.85,0-1.45-3.17,2.91-5.96,5.92-8.58,9.09-.07-.05-.14-.1-.21-.16.16-.29.29-.62.5-.87,1.56-1.87,3.04-3.83,4.73-5.57,2.78-2.86,5.71-5.57,8.57-8.35-.07-.08-.15-.16-.22-.25-.09.05-.2.08-.28.14-2.52,2.02-4.89,4.2-7.05,6.61-.3.33-.65.61-.97.92-.08-.06-.16-.12-.24-.19.09-.19.15-.42.29-.58,1.93-2.16,3.83-4.33,6.12-6.14,1.15-.91,2.21-1.92,3.39-2.96-1.08-.08-1.91-.11-2.83.66-5.26,4.44-10.15,9.3-15.69,13.42-1.55,1.16-2.98,2.48-4.47,3.73-.18.15-.38.28-.58.42-.06-.04-.12-.09-.19-.13.09-.18.15-.39.28-.54,2.93-3.28,5.87-6.56,8.8-9.84.04-.05.07-.09.11-.14-4.1,2.83-7.37,6.56-11.13,9.78Zm37.62,24.89c.14-.04.3-.17.35-.29.96-2.36,1.99-4.7,2.84-7.1,1.14-3.23,2.69-6.24,4.47-9.15.07-.12.16-.24.25-.35.03-.04.1-.06.32-.2-.84,1.88-1.61,3.59-2.38,5.31.02.01.05.03.07.04.63-.87,1.26-1.73,1.87-2.61,1.34-1.93,2.69-3.87,4.01-5.82.88-1.3,1.46-2.74,1.81-4.35-1.49.97-2.98,1.95-4.47,2.92-.04-.02-.08-.05-.12-.07.14-.21.25-.47.44-.61,1.28-.94,2.52-1.95,3.88-2.75,1.4-.82,2.65-1.74,3.57-3.09.18-.26.32-.56.47-.84-4.71-.07-9.32.9-14.01.28.22-.07.43-.2.65-.22,1.79-.14,3.59-.21,5.37-.39,4.35-.46,8.69-1,12.74-2.83.2-.09.41-.18.6-.34-2.03.95-4.23.93-6.38,1.19-2.17.27-4.35.4-6.53.38,0-.06,0-.11-.01-.17,2.23-.27,4.47-.52,6.7-.83,2.22-.31,4.49-.48,6.47-1.69,0-.07-.02-.15-.02-.22-4.75.09-9.49.17-14.24.26,0-.04-.01-.07-.02-.11.4-.07.79-.17,1.19-.2,2.2-.18,4.4-.33,6.59-.52,2.48-.22,4.97-.41,7.38-1.13.13-.04.26-.1.37-.26-4.1.16-8.2.32-12.3.48,0-.09-.01-.18-.02-.26,2.47-.34,4.93-.67,7.4-1.01,0-.08,0-.15-.01-.23-.62-.06-1.24-.15-1.87-.16-2.77-.04-5.54-.07-8.31-.06-.39,0-.8.23-1.17.43-.28.15-.5.43-.76.63-.48.37-.96.7-.53,1.45.09.15-.08.57-.26.74-1.23,1.2-2.48,2.38-3.74,3.53-.28.25-.43.51-.28.84.59,1.35-.1,2.16-1.15,2.84-.68.44-1.07,1.04-1.32,1.85-.49,1.61-1.1,3.2-1.72,4.77-.67,1.69-.82,3.48-1.19,5.24-.5,2.39-.47,4.8-.5,7.21-.03,2.48-.64,4.85-1.54,7.15-.15.38-.27.77-.43,1.24,1.95-.05,3.71-.43,5.47-.91Zm-3.37-61.31c3.66-.19,7.25-.39,10.83-.54,1.65-.07,3.31-.06,4.96-.05,5.36.05,10.71.12,16.07.19,1.86.02,3.72.07,5.57.09.24,0,.49-.04.89-.08-.29-.88-.5-1.71-.83-2.49-.45-1.04.08-2.11,1.2-2.21,1.24-.11,2.43-.42,3.57-.89.46-.19.58-.02.59.43.01.5.1,1,.17,1.49.06.42.34.51.72.46,2.04-.25,4.08-.49,6.12-.75.17-.02.34-.13.5-.23,2.13-1.39,4.25-2.78,6.37-4.17.45-.29.92-.56,1.34-.89.14-.11.28-.39.23-.53-.56-1.89-1.16-3.78-1.78-5.75-.94.8-1.98.54-3.02.36-.19-.03-.48.07-.6.21-.97,1.18-1.86,2.43-2.87,3.57-1.82,2.05-4.04,3.56-6.53,4.67-2.4,1.07-4.89,1.91-7.49,2.29-3.05.44-6.13.71-9.2.22-2.06-.33-4.09-.87-6.14-1.27-.84-.17-1.7-.25-2.56-.33-1.62-.15-3.24-.36-4.87-.4-3.83-.09-7.64.15-11.43.71-.49.07-.98.14-1.52.21-.09,1.95-.19,3.84-.28,5.65Zm42.68-36.7c-.21.3-.42.46-.45.65-.33,1.94-.63,3.89-.94,5.84.08.01.16.03.24.04.06-.33.1-.67.17-1,.07-.33.18-.66.27-.99.08.02.16.04.23.06-.14,1.07-.24,2.14-.43,3.19-.4,2.21-.45,4.44-.18,6.66.12,1.02.98,1.51,1.86,1.78,2.34.71,4.68,1.38,7.05,2,1.41.37,2.84.63,4.28.88.85.14,1.61-.43,1.78-1.27.76-3.9,1.53-7.79,2.25-11.7.38-2.11.65-4.23.99-6.35.17-1.09.11-1.16-.87-1.63-1.25-.61-2.59-.74-3.95-.9-1.51-.18-3-.52-4.52-.68-1.32-.15-2.67-.26-4-.19-1.26.07-2.13.97-2.67,2.04-.45.9-.66,1.93-.98,2.91-.07.21-.13.41-.19.62-.07-.01-.14-.02-.21-.04.08-.58.16-1.15.26-1.92Zm11.92,43.45c2.79-1.13,5.37-2.63,7.94-4.17.23-.14.48-.25.76-.3-2.22,2.11-4.81,3.62-7.56,4.85,4.97.5,9.92,1,14.92,1.5.27-2,.54-4.04.81-6.13-.63.46-1.2.92-1.82,1.31-.61.38-1.27.67-1.91,1-.05-.08-.1-.16-.16-.24.51-.46,1-.95,1.55-1.36,2.62-2,4.61-4.55,6.28-7.36,1.43-2.4,2.13-5.09,2.78-7.78.3-1.26.73-2.5.61-3.83,0-.1-.01-.19-.02-.29-.49.34-.96.65-1.42.99-.08.06-.15.18-.17.29-.24,1.4-.89,2.6-1.85,3.64-.18.19-.39.41-.62.49-.6.22-.75.6-.78,1.24-.13,3.07-1.44,5.58-3.92,7.4-.66.48-1.5.82-2.3,1-1.75.37-3.52.61-5.29.87-.59.09-.96-.2-1.11-.81-.17-.68-.41-1.33-.59-2.01-.07-.27-.07-.56-.1-.83-.7-.21-1.26.17-1.85.53-2.61,1.59-5.2,3.21-7.86,4.71-1.21.68-2.61.88-4,.92-.82.03-1.64,0-2.49,0-.09,1.59-.17,3.08-.26,4.64.26.02.49.04.71.04,1.69.03,3.39.07,5.09.07.31,0,.64-.12.93-.26,1.01-.47,1.99-.98,3-1.46.21-.1.45-.15.67-.23.03.06.07.12.1.19-.95.59-1.91,1.18-2.93,1.81,1.03.11,1.93-.05,2.84-.42Zm15.9,10.28c-.63-.04-1.26-.1-1.89-.13-6.22-.22-12.43-.44-18.65-.64-2.91-.09-5.82-.15-8.73-.24-6.16-.2-12.31-.42-18.47-.62-3.97-.13-7.93-.29-11.9-.35-3.39-.05-6.78.04-10.17.06-.08,0-.16.02-.27.03v3.04c1.39.06,2.78.12,4.18.18,5.62.22,11.24.35,16.86.67,8.8.51,17.6.81,26.41.7,3.49-.04,6.99.02,10.48-.03,2.33-.03,4.66-.21,7-.27,1.42-.04,2.85.03,4.27.05.2,0,.4,0,.61,0,.09-.83.18-1.61.28-2.46Zm3-16.51c-.09.11-.2.23-.23.36-.47,2.61-1.07,5.21-1.16,7.93.18.05.37.04.48.14.15.13.34.34.33.5-.12,1.5-.29,2.99-.42,4.49-.07.8-.08,1.61-.16,2.41-.02.22-.15.51-.32.61-.59.33-.61.3-.7,1.07.97.4,1.96.81,2.95,1.21.32.13.66.23.98.37.13.06.3.19.32.31.02.1-.15.26-.27.33-.71.46-1.44.89-2.14,1.36-.27.18-.51.41-.8.64,1.13.81,2.22,1.6,3.33,2.41.01,0,.07,0,.09-.02,1.76-1.8,3.54-3.58,5.28-5.41.27-.28.37-.73.52-1.11.59-1.49,1.17-2.99,1.75-4.48-.08,0-.16,0-.24,0-.09-.41-.24-.81-.27-1.23-.14-1.85-.19-3.71-.4-5.55-.11-.94.52-1.3,1.04-1.73.38-.31.46-.53.36-1.01-.53-2.55-1.93-4.65-3.37-6.71-.11.03-.15.03-.18.05-.6.41-1.15.76-1.93.22-.56-.39-1.28-.55-1.88-.8-.98,1.22-1.97,2.43-2.96,3.65Zm-73.5,43.17c.86-2.41,1.72-4.83,2.64-7.4-1.09.77-2.07,1.43-3.02,2.14-.64.48-1.3.73-2.12.68-1.38-.09-2.76-.12-4.14-.13-.28,0-.64.16-.83.36-1.15,1.21-2.28,2.45-3.37,3.71-.17.19-.16.61-.11.91.26,1.61.61,3.2.84,4.82.15,1.06.14,2.14.21,3.21.06,0,.12.01.19.02.22-1.97.45-3.94.67-5.9.03,0,.07-.02.1-.03.09.67.29,1.34.26,2-.07,1.46-.24,2.91-.41,4.37-.31,2.68-.24,5.31.77,7.85.09.22.29.48.49.55,1.6.51,3.21.98,4.95,1.51.44-1.71.81-3.36,1.31-4.98.82-2.7.56-5.47.71-8.22.11-1.93.24-3.87.41-5.79.03-.4.28-.77.44-1.16.07.02.14.05.22.08-.06.48-.12.96-.18,1.42Zm0-38.51c.95.05,1.95.13,2.96.14,6.57.1,13.15.12,19.72.29,4.01.11,8,.44,12.01.69,1.03.06,2.05.19,3.21.3.14-1.25.28-2.48.42-3.76-1.62-.12-3.16-.31-4.7-.32-4.2-.04-8.39-.08-12.58,0-4.3.09-8.59.33-12.88.49-2.68.1-5.36.16-8.15.24,0,.54,0,1.22,0,1.94Zm38.3-4.73c-2.46,0-4.88.03-7.29,0-1.92-.03-3.84-.22-5.76-.21-7.15.06-14.31.17-21.46.29-1.11.02-2.23.26-3.34.21-1.81-.09-3.61-.31-5.41-.52-2.5-.29-5-.61-7.49-.95-1.47-.2-2.93-.46-4.4-.68-.51-.08-1.03-.11-1.54-.19-.53-.09-.89.03-.95.63-.01.14-.08.28-.14.5.99.2,1.98.4,2.96.58,2.21.4,4.42.83,6.63,1.17,1.63.25,3.27.4,4.91.58,1.95.21,3.89.48,5.84.6,1.52.09,3.06.04,4.59-.01,2.29-.08,4.58-.23,6.87-.33,4.34-.19,8.67-.34,13.01-.55,3.66-.18,7.32.04,10.97.3.65.05,1.3.14,1.98.22,0-.65,0-1.13,0-1.64Zm-40.97,29.46c1.64,1.76,2.12,3.94,2.43,6.2.02.12.02.25.05.37.01.06.06.1.13.21.88-.83,1.75-1.65,2.62-2.46.54-.51,1.09-1,1.62-1.52.11-.11.17-.34.14-.49-.35-1.56-.67-3.14-1.12-4.67-.18-.6-.61-1.16-1.03-1.65-1.23-1.43-2.58-2.75-4.41-3.41-.29-.1-.74-.13-.96.03-1.65,1.21-3.25,2.46-4.96,3.78,2.57.23,3.97,2,5.48,3.63Zm-9.51,5.72c.51,1.35,1.44,1.62,2.65,1.79,2.42.33,4.84.6,7.28.42.51-.04,1-.34,1.48-.55.08-.04.14-.25.12-.36-.23-1.15-.45-2.3-.75-3.43-.54-2.07-2.03-3.49-3.44-4.97-.16-.16-.34-.3-.51-.45-.81-.72-1.64-1.29-2.85-1.18-1.54.14-3.09.1-4.63.17-.3.01-.59.18-.87.27-.37,2.97.51,5.62,1.52,8.29Zm51.9-38.72c-.02-.09-.05-.18-.07-.26.81-.29,1.61-.59,2.43-.88v-.83c-.27.04-.51.07-.74.12-.94.21-1.89.37-2.8.67-.23.08-.35.61-.43.95-.02.08.3.32.49.36.73.16,1.47.28,2.21.41,0,.06,0,.11,0,.17-.36,0-.73.01-1.09,0-.39-.02-.78-.06-1.24-.1,1.09,3.07.6,6.08.05,9.17.31.01.59.03.86.04.27,0,.53,0,.89,0,.21-1.95.41-3.88.62-5.81.06,0,.13-.01.19-.02.08.62.21,1.24.23,1.86.03.68-.02,1.36-.05,2.04-.03.66-.09,1.31-.14,2.02.32.02.6.03.93.05.07-1.22.13-2.41.19-3.59.56,1.17.5,2.39.33,3.65h.78c.75-2.64.15-8.54-1.07-10.6-.85.2-1.7.4-2.55.6Zm34.1-28.07c-.54-.67-1.19-1.18-2.1-1.08-.28.03-.65.22-.77.44-.32.61-.62,1.27-.76,1.94-.19.92-.24,1.88-.29,2.82-.01.22.18.54.37.67,1.85,1.23,3.71,2.46,5.61,3.63.46.28,1.07.3,1.67.46-.4-3.43-1.65-6.33-3.73-8.88Zm18.76,33.76c.15-.18.19-.55.12-.8-.91-3.56-1.89-7.1-4.1-10.12-.84-1.15-1.93-2.13-2.96-3.25-.31.98-.59,1.81-.83,2.65-.03.11.11.29.2.42.91,1.25,1.93,2.43,2.72,3.76.66,1.1,1.1,2.35,1.55,3.56.63,1.7,1.19,3.42,1.83,5.28.53-.53,1.04-.98,1.47-1.5Zm-19.83-11.12c.59-4.09-1.02-7.41-3.56-10.41-.3-.36-.7-.66-1.1-.88-.26-.14-.65-.16-.93-.07-1.61.54-3.21,1.13-4.84,1.72.12.34.22.62.35.98,1-.33,1.99-.65,2.97-.99.63-.23,1.24-.51,1.87-.74.1-.04.32.04.39.14,1.81,2.24,3.29,4.67,3.66,7.57.39,3.06-.82,5.52-3.24,7.38-.9.69-.93.65-.39,1.79,2.91-1.23,4.38-3.44,4.82-6.48Zm-8.6-3.8q1.71-.87,2.53.04c.36-.25.72-.51,1.08-.77.37-.27.72-.54,1.21-.9.67.95,1.32,1.89,1.99,2.84.06-.02.12-.04.18-.06-.33-1.02-.56-2.09-1.03-3.03-.66-1.31-1.51-2.53-2.31-3.78-.08-.13-.36-.25-.49-.21-1.5.48-2.99.99-4.51,1.51.47,1.52.92,2.94,1.36,4.38Zm20.76-1.22c0-.13-.06-.29-.15-.38-1.07-1.14-2.15-2.27-3.28-3.45-.12.38-.23.72-.34,1.06-.11.35-.15.74-.67.77-.09,0-.21.27-.24.44-.19,1.01-.34,2.03-.55,3.04-.08.37,0,.59.32.82,1.25.88,2.47,1.78,3.79,2.74.61-1.67,1.12-3.29,1.12-5.02Zm-40.54,15.16c.63,0,1.22.05,1.81-.01,1.31-.14,2.65-.19,3.9-.55,1-.29,1.9-.95,2.82-1.49,1.86-1.1,3.71-2.23,5.56-3.34.33-.2.68-.39,1.04-.53.36-.14.6-.36.44-.73-.17-.4-.43-.76-.68-1.12-.02-.03-.33.1-.46.21-2.42,1.91-4.94,3.65-7.65,5.12-1.18.65-2.45,1.03-3.8,1.07-1.03.03-2.06,0-3.14,0,.06.54.11.97.16,1.38Zm46.82,13.95c-.19.08-.36.36-.43.58-.31,1.07-.62,2.13-.86,3.22-.47,2.13-1.64,3.84-3.05,5.44-1.33,1.52-2.61,3.09-3.94,4.67.45.21.85.4,1.3.61,1.38-1.6,2.84-3.1,3.94-4.92,1.35-2.25,2.71-4.48,3.61-6.96.33-.92.5-1.89.76-2.92-.55.1-.97.12-1.33.27Zm-7.29-.7c-.21.52-.41,1-.6,1.5-.41,1.06-.72,2.16-1.25,3.16-.4.74-1.02,1.39-1.63,1.99-1.27,1.27-2.59,2.49-3.93,3.77.44.4.87.78,1.36,1.21.81-.87,1.62-1.75,2.43-2.61.95-1.01,1.9-2,2.85-3.01.05-.06.12-.12.14-.19.73-1.77,1.45-3.54,2.19-5.34-.56-.17-1.03-.32-1.56-.48Zm-33.2-17.18c-.6.41-1.18.64-1.94.61-1.62-.07-3.25-.02-4.94-.02.11.49.18.81.29,1.28,1.89-.18,3.78-.34,5.65-.54.3-.03.61-.15.86-.31,2.69-1.73,5.37-3.47,8.04-5.22.47-.31.72-.72.27-1.32-2.76,1.85-5.5,3.67-8.23,5.52Zm43.1,13c-.02-1.71-.09-3.42-.15-5.13-.04-.97-.1-1.93-.15-2.85-.57.56-1.13,1.11-1.67,1.68-.12.12-.22.34-.2.5.2,2.5.41,5,.63,7.5.02.2.07.4.12.65,1.02-.53,1.44-1.33,1.43-2.35Zm-17.76-31.35c.02-.19-.02-.49-.15-.58-1.67-1.16-3.36-2.3-4.98-3.4-.25.63-.48,1.21-.75,1.88,1.77,1.37,3.68,2.85,5.58,4.33.1-.77.22-1.5.29-2.24Zm-17.46,11.42c-1.7,1.16-3.35,2.32-5.03,3.43-1.1.73-2.19,1.5-3.39,2.04-.83.38-1.83.48-2.76.54-1.31.09-2.64.02-4.04.02.12.43.19.69.27.99.47,0,.94.02,1.41,0,1.44-.07,2.88-.14,4.31-.26.33-.03.69-.17.97-.36,2.83-1.84,5.65-3.7,8.51-5.59-.11-.33-.18-.56-.27-.82Zm22.23,6.27c1.43,1.76,2.63,3.61,3.28,5.77.23.77.43,1.55.53,2.34.09.64.37.81.94.67.22-.05.44-.09.66-.14-.39-3.04-2.23-6.83-4.57-9.41-.3.28-.58.52-.85.77Zm-74.56,25.3c-1.44-.76-2.77-1.46-4.08-2.16-.63.59-1.19,1.11-1.78,1.66,1,.93,2,1.84,3.06,2.82.81-.68,1.73-1.44,2.8-2.33Zm67.32-35.46c.29.57.29,1.27.44,2,1.44-.96,1.95-2.42,2.42-3.89-1.08-.83-2.14-1.65-3.36-2.59.17,1.61-.21,3.07.5,4.47Zm-2.59,2.89c-.79.58-1.54,1.13-2.31,1.7.05.16.11.33.16.5.16.57.13,1.07-.5,1.35-.07.03-.14.08-.21.13-1.54,1-1.56,1.08-.71,2.83,2.09-.79,3.86-3.96,3.57-6.51Zm-4.99,1.02c.69,1.09.6,1.9-.34,2.79.1.18.21.37.32.57.66-.45,1.33-.87,1.94-1.36.16-.13.25-.53.17-.72-.42-1.02-.89-2.03-1.38-3.02-.21-.42-.48-.82-.79-1.18-.11-.12-.45-.19-.59-.12-.56.3-1.08.67-1.6,1.03-.35.25-.34.27-.1.78.75-.29,1.75.24,2.37,1.22Zm2.93-11.72c-.57-.45-1.15-.87-1.73-1.3-.41-.3-.75-.67-.74-1.2,0-.51-.29-.73-.72-.88-.21.38-.43.76-.67,1.19-1.54-.85-3.01-1.65-4.56-2.51-.13.58-.25,1.08-.38,1.65,1.53.55,3.07,1.09,4.6,1.67,1.5.57,2.98,1.19,4.56,1.82-.12-.15-.21-.33-.35-.45Zm-6.21-6.93c-.02.14.05.37.16.43.97.61,1.95,1.2,2.95,1.81.15-1.05.28-1.99.42-2.98-.97-.62-1.97-1.26-3.08-1.97-.17.98-.32,1.85-.45,2.72Zm-54.08,54.66c.11-.1.12-.39.07-.57-.15-.59-.34-1.17-.55-1.88-.38.33-.68.58-.96.83-.71.63-1.44,1.25-2.12,1.9-.14.13-.23.42-.19.62.11.69.28,1.38.44,2.13,1.17-1.06,2.26-2.04,3.32-3.04Zm51.47-35.01c-.7-2.78-1.39-5.56-2.09-8.34-.08-.32-.02-.57.36-.53.63.06,1.26.16,1.88.27.09.02.19.2.22.32.67,2.24,1.33,4.47,1.99,6.71.04.14.09.27.16.46.19-.13.36-.26.53-.38-.84-2.7-1.67-5.38-2.52-8.14h-3.4c.93,3.41,1.85,6.74,2.77,10.08.06-.01.12-.03.18-.04-.03-.13-.05-.27-.08-.4Zm23.47,15.34c.17,1.62.32,3.23.39,4.86.02.55.2.79.7.88.3.06.59.15.99.26-.06-.89-.08-1.72-.17-2.54-.13-1.2-.28-2.41-.47-3.6-.04-.22-.27-.42-.44-.61-.13-.14-.3-.24-.45-.36-.42.25-.61.58-.55,1.12Zm-20.59-13.12c.88-.44,1.79-.86,2.66-1.35.16-.09.28-.48.23-.69-.21-.9-.85-1.47-1.59-1.92-.76.68-1.52,1.35-2.23,1.99.32.69.63,1.32.94,1.98Zm-79.21-1.87c-.14.05-.32.24-.34.39-.26,1.77-.49,3.54-.73,5.34.49.07.83.13,1.18.18.38-2.06.75-4.1,1.14-6.23-.48.12-.88.19-1.26.32Zm85.52-4.66c-.13-.2-.31-.38-.49-.59-.62.43-1.22.84-1.8,1.24.51.91,1.01,1.8,1.55,2.76.66-.48,1.32-.96,1.99-1.45-.45-.72-.84-1.34-1.25-1.96Zm8.41-5.57c-.09.38.11.47.45.49.34.03.7.09,1.01.23.62.29.97,0,1.26-.49.09-.16.16-.33.22-.51.29-.86.27-.9-.54-1.3-.3-.15-.59-.3-.88-.45-.6-.32-1.35-.08-1.65.53-.26.53-.1.87.44,1.03.35.1.69.26,1.04.39-.02.09-.04.17-.06.26-.43-.06-.86-.12-1.28-.18Zm-95.55,22.66c0,.46.23.72.74.64.26-.04.53-.04.88-.06v-4.24c-.43-.07-.93-.16-1.62-.28,0,1.36,0,2.65,0,3.94Zm1.85,13.08c.1.01.2,0,.29,0v-3.68c-.58-.04-1.08-.08-1.69-.13.07,1.25.14,2.45.2,3.66.47.06.83.11,1.2.15Zm74.29-36.14c1.1.54,4.92-.28,6.95-1.59-2.49.15-4.95-.04-6.95,1.59Zm6.35-6c.61-.72.6-.89-.23-1.38-.9-.53-1.83-1.02-2.74-1.53-.39.91-.39.91-1.23.5-.44-.21-.88-.41-1.32-.62-.04.07-.08.15-.13.22,1.88.93,3.76,1.87,5.65,2.8Zm-4.05,20.07c.44-.17.83-.36,1.25-.47.51-.14.59-.46.48-.89-.23-.85-.53-1.66-1.43-2.06-.44.36-.89.73-1.34,1.1.86.51,1.08,1.34,1.05,2.32Zm1,.31s-.09.01-.13.02c0,.12-.03.24,0,.35.25.8.48,1.6.78,2.39.05.14.39.26.57.23,1.11-.2,2.21-.44,3.36-.68-.54-1.39-1.09-2.81-1.64-4.22-.48.03-.4.29-.29.59.32.93.61,1.87.94,2.79.16.45.06.64-.42.71-.75.11-1.49.26-2.25.39-.33-.92-.63-1.74-.92-2.56Zm14.76-12.27s.08-.06.12-.09c-.23-.27-.41-.58-.68-.79-2.07-1.62-4.15-3.23-6.25-4.82-.21-.16-.58-.12-.88-.17-.02.06-.03.13-.05.19,2.58,1.89,5.16,3.79,7.74,5.68Zm2.17-.64c-1.48-.06-1.32-1.13-1.48-1.95-.23-1.18.65-1.59,1.55-1.95-.01-.07-.03-.13-.04-.2-.49-.02-.98-.06-1.47-.06-.08,0-.2.15-.22.25-.43,1.74-.28,3.42.62,5.15.35-.42.65-.77,1.04-1.24Zm-14.96,4.62c-.56-1.71-1.08-3.44-1.61-5.16-.03-.1-.08-.19-.13-.32-.18.04-.35.08-.59.14.66,2.08,1.3,4.13,1.95,6.2.51-.19.51-.46.39-.85Zm6.06-12.38c.13.2.07.7-.09.86-.32.3-.79.63-1.2.63-.41,0-.82-.39-1.24-.61-.09,1.02.53,1.2,1.42,1.27.78.06,1.85-.92,1.8-1.68-.05-.92-.6-1.47-1.72-1.55.36.36.77.68,1.03,1.09Zm-7.6-7.38c1.18.76,2.38,1.53,3.58,2.31.31-.56.16-.93-.35-1.21-.9-.5-1.79-1.01-2.57-1.46-.31.17-.48.26-.66.36Zm-70.55,55.98s.09.07.14.1c-.11.22-.22.44-.32.65.02.02.04.04.05.07.73-.6,1.46-1.2,2.19-1.8-.02-.06-.05-.12-.07-.18-.59.19-1.26.26-1.76.59-1.42.94-2.77,1.99-4.15,3,.04.06.08.11.12.17,1.27-.87,2.53-1.73,3.8-2.6Zm86.01-29.14c-.15.29-.29.57-.49.95.77.4,1.49.84,2.26,1.13.23.09.63-.25,1.07-.45-1.04-.6-1.91-1.1-2.84-1.63Zm-15.04-24c.12-.57.24-1.17.37-1.8-.32-.2-.63-.39-.98-.6-.13.41-.25.77-.36,1.13-.17.54-.35.6-.85.31-.25-.14-.5-.28-.76-.39-.09-.04-.22.02-.33.04,0,.05.01.11.02.16.94.38,1.89.75,2.9,1.16Zm6.53,4.34c-.81-.53-1.63-1.03-2.48-1.57-.17.43-.19.71.25.98.78.49,1.51,1.06,2.33,1.66.28-.43.34-.79-.11-1.07Zm-64.94,50.6c.97-.86,1.92-1.71,2.89-2.57-.15-.12-.29-.22-.46-.35-.95.79-1.89,1.56-2.88,2.38.16.19.29.35.45.53Zm61.4-31.21c.31.81.63,1.64.95,2.48.12.31.17.64.31.93.09.17.29.28.45.42.05-.05.11-.09.16-.14-.35-1.15-.7-2.3-1.02-3.36-.32-.12-.58-.22-.85-.33Zm-2.55-16.68c-.07.17-.14.31-.23.53,1.16.32,2.18,1.01,3.6.72-1.21-.45-2.28-.84-3.37-1.24Zm-4.15-.83c.72.21,1.44.46,2.17.65.16.04.36-.12.5-.31-1-.29-2-.57-3.02-.87-.14.27.02.44.35.53Zm13.38,6.73c.48-1.32.31-1.87-.66-2.38.24.85.45,1.62.66,2.38Zm-11.11-5.4c-1-.08-1.94-.16-2.88-.24,0,.02-.02.03-.03.05.87.3,1.74.6,2.67.91.09-.27.15-.44.24-.72Zm1.36-7.18h-2.03c.59.28,1.18.57,1.87.9.05-.27.09-.52.16-.9Zm-3.8,9.19c.57-.32,1.03-.57,1.57-.86-.45-.18-.81-.32-1.22-.48-.12.47-.22.84-.35,1.34Zm7.72-5.55c-.05.07-.1.14-.14.22.74.5,1.49,1,2.23,1.5.04-.06.08-.12.12-.18-.74-.51-1.47-1.03-2.2-1.54Zm4.39,6.66c.28-.77-.16-1.01-.56-1.28-.06.04-.11.08-.17.12.23.36.45.71.73,1.16Z"/>
    <path class="cls-3" d="m164.53,75.95c-.05-.28-.03-.61-.17-.84-1.11-1.82-2.25-3.63-3.39-5.43-.07-.12-.23-.19-.45-.19,1.26,2.18,2.53,4.36,3.79,6.54.07-.03.15-.06.22-.08Z"/>
    <path class="cls-3" d="m152.19,62.8c.25.28.49.57.76.82.58.56,1.18,1.1,1.78,1.63.09.08.24.08.36.12.01-.11.08-.26.03-.32-.74-1.03-1.8-1.67-2.75-2.44-.06.07-.12.13-.18.2Z"/>
    <path class="cls-3" d="m160.84,71.53c-.45-.88-.8-1.81-1.5-2.53-.08.05-.16.09-.24.14.49.85.98,1.7,1.47,2.55.09-.05.18-.1.26-.15Z"/>
    <path class="cls-3" d="m160.36,159.71c-.14,0-.31-.05-.42,0-.91.42-1.88.76-2.71,1.31-3.52,2.37-6.57,5.29-9.31,8.51-2.19,2.58-4.22,5.29-6.3,7.97-.39.5-.66,1.11-.98,1.66.06.05.13.1.19.14.27-.3.56-.59.81-.91,2.89-3.67,5.77-7.35,9.11-10.63,2.13-2.09,4.43-4.02,6.71-5.97.7-.6,1.55-1.01,2.34-1.5.2-.13.4-.26.6-.4-.01-.07-.02-.13-.04-.2Z"/>
    <path class="cls-3" d="m145.9,168.36c.36-.32.74-.62,1.08-.95,2.48-2.49,5.05-4.9,7.94-6.91.99-.68,2.1-1.18,3.15-1.78.12-.07.18-.24.18-.45-5.19,2.03-8.96,5.83-12.55,9.85.06.08.13.16.2.23Z"/>
    <path class="cls-3" d="m142.7,182.46c3.3-3.78,6.58-7.53,9.87-11.28-1.94.81-10.02,10.01-9.87,11.28Z"/>
    <path class="cls-3" d="m162.88,164.52c2.83-3.03,5.66-6.06,8.55-9.16-.22.08-.45.1-.6.23-.76.61-1.57,1.17-2.22,1.88-1.8,1.99-3.54,4.04-5.29,6.07-.23.27-.38.6-.56.9.04.03.08.06.12.09Z"/>
    <path class="cls-3" d="m126.9,160.35c-5.84,3.83-10.62,8.83-15.55,13.67-.05-.04-.09-.08-.13-.12.75-.91,1.5-1.83,2.25-2.74.29-.35.61-.67.89-1.03.1-.13.09-.34.14-.51-.16.06-.36.07-.46.18-1,1.12-2.09,2.19-2.96,3.42-2.04,2.88-3.97,5.83-5.93,8.76-.38.56-.67,1.18-.94,1.81,6.81-8.56,14.31-16.42,22.69-23.43Z"/>
    <path class="cls-3" d="m154.75,150.56c-.34.08-.71.09-1.01.25-2.58,1.39-5.08,2.88-7.17,4.98-.02.02-.02.07-.09.34,1.11-.54,1.8-1.41,2.71-1.95.94-.55,1.86-1.13,2.79-1.71.94-.58,1.87-1.17,2.81-1.76-.01-.05-.02-.1-.03-.15Z"/>
    <path class="cls-3" d="m131.05,162.13c-2.18,1.17-4.29,2.43-6.16,4.07-.09.08-.13.23-.19.34.14,0,.32.08.42.01.65-.44,1.27-.91,1.92-1.35,1.18-.79,2.38-1.55,3.55-2.34.23-.16.4-.41.6-.62-.05-.04-.09-.08-.14-.12Z"/>
    <path class="cls-3" d="m119.97,135.66c-.22.05-.44.14-.65.14-2.92,0-5.83-.03-8.74-.04-.85,0-1.69,0-2.54,0,0,.04,0,.09,0,.13,2.11.1,4.22.21,6.32.31,0,.1,0,.2,0,.3-3.55.04-7.09.09-10.64.13-.05.77-.09,1.4-.14,2.04-.04.47-.27.65-.78.62-2.29-.15-4.58-.28-6.87-.37-3.92-.15-7.85-.25-11.77-.41-1.34-.05-2.67-.21-4-.37-.21-.02-.53-.27-.56-.44-.24-1.58-.44-3.18-.61-4.77-.04-.35.19-.53.56-.48.39.05.78.1,1.17.12,4.77.21,9.54.4,14.31.64,2.49.12,4.99.3,7.48.5,1.14.09,1.22.22,1.23,1.38,0,.14.02.28.02.4,2.73-.06,5.42-.16,8.11-.18,2.69-.02,5.39.04,8.08.06.01.09.03.19.04.29Zm-17.28,1.08c-.01-.12-.3-.29-.47-.31-1.82-.23-3.64-.43-5.47-.64-.08,0-.15-.04-.23-.11,2.06-.44,4.12-.17,6.16.04.04-.07.07-.1.07-.14.17-1.03.17-1.1-.85-1.19-1.83-.16-3.67-.22-5.5-.33-3.07-.18-6.14-.37-9.22-.55-1.98-.12-3.96-.21-5.94-.32-.49-.03-.97-.09-1.5-.15.05.32.09.56.13.83,4.47.59,9.01.34,13.46,1.11,0,.07,0,.15-.01.22-4.43-.19-8.86-.37-13.39-.56.02.4.04.74.07,1.23,5.51.06,11.01-.06,16.46.64,0,.08,0,.16,0,.24-2.7-.12-5.4-.27-8.1-.33-2.72-.06-5.45-.01-8.24-.01.09.37.19.78.31,1.29,7.4.23,14.81.47,22.29.7,0-.57.03-1.13-.02-1.67Z"/>
    <path class="cls-3" d="m131.97,138.72c-7.51-.63-15.02-1.28-22.57-.83-.01.07-.03.15-.04.22.19.06.38.16.58.18.8.06,1.61.11,2.41.12,2.81.05,5.62.05,8.43.15,2.66.1,5.32.32,7.98.45,1.07.05,2.14-.03,3.21-.05,0-.08,0-.16-.01-.24Z"/>
    <path class="cls-3" d="m150.39,139.17c-.28-.09-.55-.24-.83-.26-2.45-.14-4.9-.32-7.35-.37-1.83-.04-3.67.07-5.5.12-.09,0-.18.03-.27.05,0,.06-.01.11-.02.17.52.09,1.04.25,1.57.26,3.96.11,7.92.19,11.89.28.15,0,.31-.03.46-.04.02-.06.03-.13.05-.2Z"/>
    <path class="cls-3" d="m92.23,114.24c-.88-.29-1.82-.19-2.73-.27-.94-.08-1.9-.02-2.86-.13,1.85-.21,3.71-.42,5.56-.64.16-.02.3-.14.46-.21-.13-.1-.25-.26-.39-.28-1.45-.18-2.9-.34-4.29-.49.26-.07.61-.16.96-.25.38-.09.78-.12,1.14-.26,1.67-.67,3.44-.69,5.19-.81,1.12-.08,2.26.12,3.38.24,2.48.26,4.96.52,7.44.84,2.37.3,4.73.69,7.1,1.02,3.22.45,6.41,1.06,9.52,2.06.09.03.2.02.35-.09-.17-.1-.33-.23-.52-.31-2.71-1.14-5.54-1.83-8.45-2.21-2.47-.33-4.94-.71-7.41-1.03-2.27-.3-4.54-.57-6.82-.82-1.45-.16-2.91-.35-4.37-.35-1.38,0-2.75.2-4.13.35-1.74.19-3.51.29-5.22.65-2.06.44-4.09,1.06-6.1,1.71-1.09.35-2.12.89-3.18,1.37-.83.37-1.49,2.08-1.15,2.92.17.43.5.35.83.24,1.49-.46,2.99-.92,4.49-1.37,2.24-.67,4.55-.95,6.87-1.18,1.35-.13,2.71-.25,4.06-.38.09,0,.17-.08.26-.12,0-.08,0-.15.01-.22Z"/>
    <path class="cls-3" d="m136.14,113.52c-3.02.67-6.04,1.34-9.09,2.02,1.05.49,8.09-.97,9.09-2.02Z"/>
    <path class="cls-3" d="m115.86,154.02c-3.23-.08-6.43.15-9.59.79,3.24.16,6.4-.42,9.59-.79Z"/>
    <path class="cls-3" d="m112.04,65.5h6.04c-.14-.14-.2-.29-.3-.3-1.8-.31-3.6-.6-5.4-.89,0-.06,0-.11,0-.17,2.02.09,4.04.17,6.06.26.03-.06.06-.12.09-.18-.17-.09-.33-.22-.52-.26-1.6-.36-3.2-.7-4.93-1.07h3.28c1.49,0,2.97,0,4.46,0,.39,0,.78.07,1.17.06.19,0,.37-.12.56-.18,0-.07-.01-.14-.02-.2-.34-.07-.68-.18-1.03-.21-2.8-.22-5.59-.53-8.39-.61-2.93-.08-5.86-.02-8.79.12-2.14.1-4.26.46-6.39.65-2.04.18-4.02.6-5.98,1.16-1.44.41-2.56,1.22-3.43,2.39-.59.79-1.06,1.66-1.59,2.49-.82,1.3-.97,2.81-1.28,4.26-.42,1.99-.79,3.99-1.18,5.99.05.02.1.05.15.07.07-.16.16-.31.21-.47.58-1.99,1.12-3.99,1.74-5.96.68-2.16.72-2.14,2.67-3.31,2.4-1.44,5.01-2.05,7.77-2.36,3.54-.4,7.09-.34,10.64-.53,1.64-.09,3.29.13,4.94.24,1.19.08,2.38.19,3.57.32,1.51.16,3.03.32,4.54.52,1.67.22,3.35.39,5,.74,2.48.53,4.93,1.2,7.39,1.8.24.06.48.12.71.18.02-.07.04-.14.06-.21-.72-.24-1.43-.52-2.16-.72-3.2-.91-6.42-1.67-9.73-2.07-3.33-.41-6.65-.95-9.97-1.44,0-.03.01-.06.02-.09Z"/>
    <path class="cls-3" d="m144.19,70.98c-2.95-2.43-6.14-4.42-9.94-5.3-.02.05-.05.09-.07.14,1.71.75,3.48,1.4,5.13,2.29,1.66.89,3.19,2.02,4.78,3.04.03-.06.06-.11.09-.17Z"/>
    <path class="cls-3" d="m148.02,87.15c-.33,1.28-.79,2.54-.98,3.83-.49,3.25-.85,6.52-1.29,9.78-.17,1.26-.43,2.5-.65,3.76-.01.07,0,.14,0,.21.06.01.12.03.18.04.2-.74.49-1.48.6-2.23.41-2.81.73-5.62,1.16-8.43.23-1.54.62-3.05.91-4.58.15-.77.23-1.56.34-2.34-.09-.02-.18-.03-.27-.05Z"/>
    <path class="cls-3" d="m141.55,97.58c-.14.95-.3,1.89-.41,2.84-.02.2.05.49.18.63.51.56.78,1.51.45,2.16-.16.32-.49.69-.81.77-.71.18-1.42-.02-1.87-.65-.46-.64-.31-1.34,0-1.99.31-.64.89-.71,1.47-.62.26-1.08.51-2.14.77-3.19.07.01.15.03.22.04Zm-.95,5.96c.58,0,.84-.33.83-1.09,0-.89-.36-1.27-1.2-1.27-.6,0-.91.4-.91,1.19,0,.69.53,1.17,1.28,1.18Z"/>
    <path class="cls-3" d="m151.78,90.56c-.58-.44-.77-1.07-.64-1.76.11-.59.46-1.1,1.06-1.25.68-.17,1.2.25,1.59.74.69.88.44,1.99-.53,2.64-.14.1-.23.33-.27.52-.12.52-.19,1.05-.3,1.57-.07.32-.19.64-.28.96-.08-.02-.16-.04-.23-.06.13-.99.25-1.97.38-2.97-.28-.14-.56-.23-.78-.4Zm1.47-2.26c-.33-.33-.78-.57-1.27-.2-.46.34-.62,1.01-.38,1.56.25.56,1.06.99,1.64.83.58-.15.45-.65.61-1.15-.19-.35-.33-.77-.6-1.04Z"/>
    <path class="cls-3" d="m150.35,101.81c.02.28.02.57.06.85.03.18.08.43.21.49.66.35.88.93.99,1.6.14.88-.53,1.78-1.38,1.88-1.08.12-1.93-.54-1.97-1.54-.05-1.22.35-1.74,1.73-2.24.07-.34.14-.69.21-1.04.05,0,.11,0,.16,0Zm.77,3.22c-.1-1.16-.4-1.59-1.27-1.62-.67-.02-1.21.63-1.22,1.44,0,.74.61,1.31,1.41,1.3.7,0,1.14-.4,1.08-1.11Z"/>
    <path class="cls-3" d="m142.57,90.15c.19-.52-.02-.78-.49-1.05-.89-.53-.88-2.26-.03-2.85.16-.11.38-.2.57-.19,1.4.05,2.23,1,2.02,2.41-.05.33-.39.61-.6.91,0,0-1.38,1.03-1.42,1.06-.02-.11-.08-.21-.05-.29Zm.03-3.62c-.59.06-.67.57-.76.99-.12.55.08,1.03.62,1.28.25.12.54.19.82.22.75.08,1.02-.17,1.02-.92,0-1.03-.67-1.66-1.69-1.56Z"/>
    <path class="cls-3" d="m145.94,92.9c-.63,1.39-.78,2.86-.75,4.37.53-1.4.65-2.88.75-4.37Z"/>
    <path class="cls-3" d="m85.31,161.62c-.16-.32-.35-.64-.49-.97-.86-2.01-1.44-4.1-1.58-6.29-.03-.45.17-.66.6-.68,1.01-.04,2.02-.1,3.03-.11,1.03,0,2.03.13,2.84.84.81.72,1.65,1.44,2.37,2.25,1.31,1.49,2.29,3.15,2.49,5.21.06.6-.13.74-.64.74-1.5,0-3.01.08-4.51-.04-1.05-.09-2.09-.44-3.12-.71-.24-.06-.44-.3-.65-.45.04-.07.08-.14.12-.21.71.17,1.42.35,2.14.49.7.14,1.41.22,2.11.33-1.77-1.09-3.49-2.13-4.38-4.07.99,1.23,2.19,2.21,3.5,3-.7-.65-1.31-1.37-1.92-2.11-.23-.29-.6-.59-.62-.9-.05-.81-.65-1.32-.93-1.99-.15-.36-.35-.7-.51-1.06-.36-.83-.49-.89-1.41-.58-.02,2.55.92,4.89,1.84,7.23-.09.03-.18.06-.27.08Zm3.8-2.51c-1.13-1.27-1.95-2.69-2.14-4.41-.02-.16.04-.32.07-.5h-1.44c.74,1.6,1.55,3.07,2.71,4.32.8.86,1.63,1.7,2.55,2.44.71.57,1.57.94,2.55.89-1.53-.59-2.89-1.39-3.73-2.68-.3-.02-.49.02-.55-.05Zm3.62.94c-.84-.71-1.72-1.39-2.64-2.03,1.01,1.02,2.02,2.04,3.02,3.06.08-.07.17-.14.25-.21-.21-.28-.38-.6-.64-.82Z"/>
    <path class="cls-3" d="m139.81,102.24c0,.52.28.78.71.77.39-.01.61-.3.56-.72-.05-.37-.09-.74-.61-.74-.52,0-.68.28-.66.7Z"/>
    <path class="cls-3" d="m151.99,89.1c.03-.44.26-.73.74-.72.47.01.77.32.71.74-.05.34.07.96-.58.9-.48-.02-.9-.46-.87-.92Zm.72-.33c-.11.07-.33.19-.32.21.1.24.23.47.36.7.1-.06.21-.11.31-.17-.11-.25-.23-.5-.35-.75Z"/>
    <path class="cls-3" d="m149.65,103.81c-.28.06-.38.42-.37.8.02.43.51.9.81.74.23-.13.48-.49.48-.74,0-.4-.1-.91-.92-.8Z"/>
    <path class="cls-3" d="m143.08,88.52c.46.03.64-.27.67-.65.05-.51-.28-.85-.74-.86-.46-.02-.64.26-.69.64-.06.43.35.86.76.87Z"/>
  </g>
  <g>
    <path class="cls-2" d="m34.3,48.25l3.73-4.06c.15-.16.33-.24.56-.25.22,0,.42.06.58.21l14.1,12.96c.16.15.24.33.25.56,0,.22-.06.42-.21.58l-3.23,3.51c-.32.35-.74.5-1.26.45l-10.44-.82,5.94,5.46c.16.15.24.33.25.56s-.06.41-.21.57l-3.73,4.06c-.15.16-.33.25-.56.25-.22,0-.41-.06-.58-.21l-14.1-12.96c-.16-.15-.24-.33-.25-.56,0-.22.06-.41.21-.57l3.25-3.54c.32-.35.73-.5,1.22-.45l10.94,1.28-6.42-5.9c-.16-.15-.24-.33-.25-.56s.06-.41.21-.58Z"/>
    <path class="cls-2" d="m70.09,39.38l10.4-5.64c.19-.1.39-.12.61-.06.21.06.37.19.48.38l1.99,3.67c.1.19.12.39.06.61s-.19.37-.38.48l-16.47,8.94c-.19.1-.39.12-.61.06-.21-.06-.37-.19-.48-.38l-9.14-16.83c-.1-.19-.12-.39-.06-.61.06-.21.19-.37.38-.48l16.21-8.8c.19-.1.39-.12.61-.06.21.06.37.19.48.38l1.99,3.67c.1.19.12.39.06.61-.06.22-.19.37-.38.48l-10.14,5.5.89,1.64,8.7-4.72c.19-.1.39-.12.61-.06s.37.19.48.38l1.84,3.39c.1.19.12.39.06.61-.06.22-.19.37-.38.48l-8.7,4.72.89,1.64Z"/>
    <path class="cls-2" d="m118.16,23.69c.71,4.29-1.68,6.89-7.18,7.8l-12.05,2c-.21.04-.41-.01-.59-.14-.18-.13-.29-.3-.33-.52l-3.13-18.89c-.04-.21.01-.41.14-.59s.3-.29.52-.33l11.76-1.95c2.77-.46,4.89-.3,6.38.49,1.48.79,2.39,2.19,2.73,4.22v.09c.17.94.05,1.78-.35,2.52-.4.75-.85,1.25-1.37,1.52.8.11,1.54.51,2.21,1.21.68.7,1.1,1.56,1.27,2.57Zm-9.79-5.33c.16-.32.21-.65.15-1-.06-.35-.21-.64-.46-.86-.25-.22-.57-.3-.95-.23l-3.92.65.44,2.66,3.92-.65c.39-.06.66-.26.82-.57Zm-3.93,6.11l.47,2.87,4.24-.7c.45-.07.76-.28.93-.62.17-.34.23-.69.17-1.07v-.03c-.07-.37-.24-.67-.53-.9-.29-.23-.64-.32-1.05-.25l-4.24.7Z"/>
    <path class="cls-2" d="m151.47,31.2c-2.15,1.09-4.87,1.36-8.14.81-3.28-.55-5.76-1.68-7.44-3.41-1.69-1.72-2.28-4.08-1.78-7.06l1.84-11.03c.04-.21.14-.38.33-.51s.38-.17.59-.14l6.11,1.02c.22.04.39.14.52.32.13.18.18.37.14.59l-1.9,11.43c-.13.79.04,1.43.5,1.94.47.51,1.16.84,2.07.99.92.15,1.68.06,2.28-.27.61-.33.97-.89,1.1-1.68l1.9-11.43c.04-.21.14-.38.33-.51.18-.13.38-.17.59-.14l6.11,1.02c.22.04.39.14.52.32s.18.38.14.59l-1.84,11.03c-.5,2.98-1.82,5.02-3.98,6.1Z"/>
    <path class="cls-2" d="m179.1,37.88l8.88,4.83c.19.1.32.26.38.48.06.22.04.42-.06.61l-2.14,3.93c-.1.19-.26.32-.48.38-.22.06-.42.04-.61-.06l-15.21-8.27c-.19-.1-.32-.26-.38-.48-.06-.21-.04-.42.06-.61l9.15-16.83c.1-.19.26-.32.48-.38.21-.06.42-.04.61.06l5.62,3.06c.19.1.32.26.38.48s.04.42-.06.61l-6.63,12.19Z"/>
    <path class="cls-2" d="m200.56,61l-3.79-4.13c-.12-.13-.18-.29-.17-.47,0-.18.06-.31.14-.39.09-.08.16-.13.22-.16l18.33-8.05c.6-.31,1.14-.2,1.62.32l5.57,6.07c.48.52.54,1.07.18,1.64l-9.59,17.57c-.03.06-.09.12-.18.2s-.22.12-.4.11c-.18,0-.33-.08-.45-.21l-3.79-4.13c-.43-.47-.48-1.02-.16-1.66l1.03-1.95-4.89-5.33-2.03.86c-.67.27-1.22.16-1.64-.3Zm11.8-.25l3.12-5.72-5.97,2.62,2.85,3.1Z"/>
  </g>
  <g>
    <path class="cls-2" d="m31.15,169.67c.06.62,0,1.31-.18,2.08l-1.6-.41c.25-1.09.17-2.06-.26-2.93-.52-1.06-1.34-1.72-2.48-1.97-1.13-.25-2.6.06-4.41.94-1.76.86-2.9,1.81-3.42,2.86-.52,1.05-.52,2.11,0,3.17.26.54.59.98.97,1.29.38.32.86.62,1.41.92l-.69,1.41c-.6-.2-1.19-.54-1.76-1.02-.57-.49-1.06-1.13-1.45-1.94-.51-1.04-.7-2.09-.58-3.15.12-1.06.57-2.06,1.34-3,.78-.94,1.86-1.75,3.26-2.43,1.4-.68,2.71-1.03,3.93-1.04,1.22-.01,2.29.26,3.19.81.9.56,1.59,1.33,2.07,2.32.37.77.59,1.46.65,2.08Z"/>
    <path class="cls-2" d="m40.76,185.49c.07,1.06-.19,2.12-.78,3.18-.59,1.06-1.52,2.05-2.79,2.97-1.24.91-2.46,1.49-3.64,1.73-1.18.24-2.28.17-3.28-.21s-1.85-1.06-2.56-2.03c-.71-.97-1.1-1.98-1.18-3.04-.08-1.06.18-2.12.77-3.18.59-1.05,1.52-2.04,2.77-2.96,1.23-.9,2.45-1.48,3.64-1.73,1.2-.25,2.3-.18,3.31.2s1.86,1.06,2.56,2.01c.71.97,1.1,1.98,1.17,3.05Zm-5.31-3.6c-1.16,0-2.54.58-4.14,1.75-1.59,1.16-2.55,2.3-2.88,3.4-.33,1.1-.14,2.15.58,3.14,1.54,2.11,3.86,2.04,6.95-.22,3.1-2.27,3.88-4.46,2.33-6.57-.73-1-1.68-1.5-2.84-1.5Z"/>
    <path class="cls-2" d="m39.49,204.62l9.85-10.26,5.45,5.23-1.25.97-3.87-3.72-3.36,3.5,3.35,3.22-1.07,1.12-3.35-3.22-4.33,4.51-1.41-1.36Z"/>
    <path class="cls-2" d="m53.65,216.84l8.13-11.67,6.2,4.32-1.08,1.16-4.4-3.07-2.77,3.98,3.81,2.66-.89,1.27-3.81-2.66-3.58,5.13-1.61-1.12Z"/>
    <path class="cls-2" d="m82.65,217.23l-.88,1.32-4.97-2.39-2.01,4.19,4.32,2.07-.68,1.41-4.32-2.07-2.11,4.39,5.32,2.56-.68,1.41-7.09-3.41,6.16-12.82,6.94,3.33Z"/>
    <path class="cls-2" d="m99.1,222.76l-.65,1.44-5.29-1.53-1.29,4.46,4.6,1.33-.44,1.51-4.6-1.33-1.35,4.68,5.67,1.64-.44,1.51-7.56-2.18,3.95-13.66,7.4,2.14Z"/>
    <path class="cls-2" d="m127.59,225.73c.59.21,1.19.56,1.8,1.05l-1.05,1.28c-.88-.69-1.8-1.02-2.76-1.01-1.18.02-2.13.49-2.84,1.41s-1.05,2.39-1.01,4.39c.03,1.95.41,3.39,1.14,4.31s1.69,1.37,2.87,1.35c.61,0,1.13-.12,1.58-.34s.93-.51,1.43-.89l.99,1.22c-.43.46-.99.85-1.67,1.16-.68.31-1.47.48-2.37.49-1.16.02-2.19-.25-3.1-.81-.91-.56-1.63-1.38-2.15-2.48-.52-1.1-.79-2.43-.82-3.98-.03-1.55.21-2.89.72-4.01.5-1.12,1.2-1.96,2.09-2.54.89-.58,1.88-.88,2.98-.89.85-.01,1.57.09,2.16.3Z"/>
    <path class="cls-2" d="m146.09,224.1c.99.4,1.83,1.1,2.51,2.1s1.17,2.27,1.45,3.81c.27,1.52.26,2.86-.05,4.03-.3,1.17-.84,2.12-1.63,2.85-.79.73-1.77,1.2-2.95,1.41s-2.26.12-3.25-.28c-.99-.4-1.82-1.09-2.51-2.09s-1.17-2.26-1.44-3.79c-.27-1.5-.26-2.85.04-4.03.3-1.19.84-2.15,1.64-2.88.79-.74,1.77-1.21,2.93-1.42,1.18-.21,2.26-.11,3.25.29Zm-5.57,3.19c-.51,1.04-.59,2.54-.25,4.49.35,1.94.94,3.3,1.79,4.08.85.79,1.87,1.07,3.08.85,2.57-.46,3.53-2.57,2.85-6.34-.68-3.78-2.3-5.44-4.87-4.98-1.22.22-2.09.85-2.6,1.89Z"/>
    <path class="cls-2" d="m174.7,228.98l-1.76.7-2.84-5.78c-1.12-2.26-1.95-4.02-2.47-5.26l1.07,10.99-1.71.68-6.95-8.67c.64,1.6,1.29,3.48,1.96,5.64l1.88,6.01-1.73.69-4.17-13.65,2.45-.98,6.61,8.5-1.19-10.66,2.47-.99,6.36,12.78Z"/>
    <path class="cls-2" d="m184.92,207.87c1.21.1,2.21.76,3,1.99.84,1.31,1.05,2.55.61,3.73-.44,1.18-1.35,2.22-2.75,3.12l-1.51.97,2.83,4.39-1.65,1.06-7.7-11.96,3.14-2.02c1.48-.95,2.83-1.38,4.04-1.28Zm1.79,5.61c.26-.69.09-1.52-.53-2.48-.55-.86-1.2-1.31-1.95-1.37-.75-.06-1.59.22-2.53.82l-1.48.95,3.21,4.98,1.44-.93c.96-.62,1.57-1.27,1.84-1.97Z"/>
    <path class="cls-2" d="m206.85,206.79l-3.19-1.94-4,3.61,1.59,3.37-1.47,1.33-6.13-13.62,1.84-1.66,12.89,7.53-1.53,1.38Zm-7.9.17l3.3-2.97-6.61-4.04,3.32,7.01Z"/>
    <path class="cls-2" d="m221.87,189.4l-1.6,2.08-13.09-2.79c.8.51,1.54,1,2.2,1.45.67.45,1.45,1.03,2.36,1.73l5.17,3.98-1.12,1.46-11.27-8.68,1.56-2.03,13.15,2.75c-.31-.19-.84-.52-1.59-1.02-.75-.49-1.42-.96-2.01-1.42l-6.15-4.74,1.12-1.45,11.27,8.68Z"/>
    <path class="cls-2" d="m220.26,163.78l5.68,8.09,4.86,2.51-.91,1.76-4.84-2.5-9.9.05.99-1.93,7.85.15-4.67-6.31.94-1.82Z"/>
  </g>
  <path class="cls-4" d="m20.64,154.75c-2.48-9.15-3.81-18.79-3.81-28.73,0-17.52,4.12-34.09,11.44-48.77"/>
  <path class="cls-4" d="m228.91,154.75c2.48-9.15,3.81-18.79,3.81-28.73,0-17.52-4.12-34.09-11.44-48.77"/>
</svg>